# xmcd
#
# Track frame offsets: 
#        150
#        10767
#        22800
#        37895
#        58339
#        71115
#        84457
#        97500
#        114262
#        135567
#        149865
#        166860
#        183195
#        198207
#        213447
#        230347
#        247430
#        260317
#        283955
#
# Disc length: 3956 seconds
#
# Revision: 2
# Processed by: cddbd v1.4PL0 Copyright (c) Steve Scherf et al.
# Submitted via: ExactAudioCopy v0.90b3
#
DISCID=090f7213
DTITLE=Conway Twitty - Reader's Digest (His Greatest and Finest Performa
DTITLE=nces) - Disc 3
DYEAR=1900
DGENRE=Country
TTITLE0=Boogie Grass Band
TTITLE1=Your Love Had Taken Me That High
TTITLE2=I'd Love To Lay You Down
TTITLE3=Rest Your Love On Me
TTITLE4=Tight Fittin' Jeans
TTITLE5=A Bridge That Just Won't Burn
TTITLE6=Happy Birthday Darlin'
TTITLE7=Don't Take It Away
TTITLE8=Red Neckin' Love Makin' Night
TTITLE9=I Still Believe In Waltzes
TTITLE10=Julia
TTITLE11=I Want To Know You (Before We Make Love)
TTITLE12=Saturday Night Special
TTITLE13=(I Wish I Was) Still In Your Dreams
TTITLE14=She's Got A Single Thing In Mind
TTITLE15=Crazy In Love
TTITLE16=I Couldn't See You Leavin'
TTITLE17=Rainy Night In Georgia
TTITLE18=I May Never Get To Heaven
EXTD=
EXTT0=
EXTT1=
EXTT2=
EXTT3=
EXTT4=
EXTT5=
EXTT6=
EXTT7=
EXTT8=
EXTT9=With Loretta Lynn
EXTT10=
EXTT11=
EXTT12=
EXTT13=
EXTT14=
EXTT15=
EXTT16=
EXTT17=With Sam Moore
EXTT18=
PLAYORDER=
